# Blender v2.93.1 OBJ File: 'Deciduous_Tree.blend'
# www.blender.org
mtllib Deciduous_Tree.mtl
o Deciduous_Tree_Cube.002
v -0.682075 1.136033 -0.047127
v -0.746908 1.390618 -0.047127
v -0.342556 1.222495 0.362671
v -0.407389 1.477081 0.362671
v 0.059223 1.296487 0.213725
v -0.001694 1.535693 0.213725
v 0.110242 1.309480 -0.343855
v 0.031861 1.617267 -0.343855
v -0.467960 1.461656 -0.479602
v -0.403127 1.207070 -0.479602
v -0.657623 1.553186 -0.035169
v -0.525909 1.035972 -0.035169
v -0.391884 1.620859 0.245922
v -0.260170 1.103646 0.245922
v -0.164940 1.678653 0.134915
v -0.092342 1.146385 0.081423
v -0.195478 1.670876 -0.283005
v -0.063764 1.153663 -0.230901
v -0.474498 1.599821 -0.355463
v -0.342784 1.082607 -0.355463
v 0.059223 1.296487 0.213725
v -0.001694 1.535693 0.213725
v 0.110242 1.309480 -0.343855
v 0.031861 1.617267 -0.343855
v -0.164940 1.678653 0.134915
v -0.092342 1.146385 0.081423
v -0.195478 1.670876 -0.283005
v -0.063764 1.153663 -0.230901
v -0.021949 0.898021 -0.097486
v -0.018647 0.999686 -0.050868
v -0.004589 0.951122 0.037955
v -0.024661 0.866849 0.025413
v -0.038896 0.850917 -0.031268
v -0.260894 1.037348 -0.140670
v -0.223891 1.070788 -0.104434
v -0.238025 1.058015 -0.045804
v -0.283763 1.016681 -0.045804
v -0.297897 1.003909 -0.104434
v -0.024937 0.000926 -0.167159
v 0.280309 1.491938 0.023210
v 0.139586 0.000926 -0.047626
v 0.307943 1.491938 0.043288
v 0.076744 0.000926 0.145782
v 0.297388 1.491938 0.075774
v -0.126618 0.000926 0.145782
v 0.263229 1.491938 0.075774
v -0.189460 0.000926 -0.047626
v 0.252674 1.491938 0.043288
v 0.072708 0.999047 -0.118578
v 0.158492 0.979213 -0.054607
v 0.125725 0.986789 0.048900
v 0.019690 1.011305 0.048900
v -0.013077 1.018881 -0.054607
v 0.148723 1.231816 -0.062928
v 0.207141 1.231816 -0.020485
v 0.184827 1.231816 0.048190
v 0.112619 1.231816 0.048190
v 0.090305 1.231816 -0.020485
v 0.162423 0.649849 -0.033648
v 0.119801 0.649849 0.066276
v -0.018128 0.649849 0.084381
v 0.050837 0.649849 -0.114719
v -0.041291 0.640116 -0.033186
v -0.312345 1.741146 -0.209517
v -0.166874 1.375585 0.338824
v -0.147472 1.749110 0.343304
v 0.724318 1.212709 0.457697
v 0.841228 1.656777 0.457697
v 0.655150 1.189431 -0.467686
v 0.759318 1.633500 -0.520763
v 0.157245 1.711446 -0.639812
v 0.143212 1.269616 -0.624411
v -0.107037 2.042402 -0.186267
v -0.111513 1.110635 -0.186267
v -0.003898 2.025202 0.197187
v -0.067093 1.120937 0.195242
v 0.708818 1.941161 0.294160
v 0.499641 1.026337 0.325123
v 0.675093 1.945328 -0.336524
v 0.512670 1.013419 -0.255187
v 0.212207 2.020456 -0.443316
v 0.145754 1.069776 -0.384928
v 0.273461 1.702944 0.569189
v 0.205139 1.294147 0.565704
v 0.309411 2.003527 0.375504
v 0.132877 1.073637 0.414365
v 0.982887 1.645138 0.016893
v 0.865976 1.201070 0.016893
v 0.837337 1.953210 -0.001915
v 0.641926 1.019878 0.012933
v -0.223274 1.663798 -0.290224
v -0.207248 1.667879 0.155610
v -0.313379 1.640852 -0.225828
v -0.119390 1.570177 -0.384934
v -0.089311 1.147157 -0.242306
v -0.354685 1.079576 -0.113129
v -0.307005 1.091719 -0.145532
v -0.100941 1.144195 0.089850
v -0.133679 1.135858 -0.195771
v -0.281434 1.098231 -0.054106
v -0.336739 1.084146 -0.057858
v -0.276269 1.099546 -0.054394
v -0.256687 1.104533 -0.109352
v -0.178294 1.510179 0.278561
v -0.117414 1.317016 -0.400659
v -0.069930 1.273538 -0.391497
v -0.118905 1.263683 0.279760
v -0.120891 1.258235 0.272657
v -0.127202 1.274339 0.281737
v -0.178541 1.373107 0.291010
vt 0.717578 0.796629
vt 0.773205 0.796416
vt 0.779031 0.907416
vt 0.711779 0.907673
vt 0.584786 0.626205
vt 0.610325 0.641408
vt 0.503800 0.675777
vt 0.521166 0.635836
vt 0.751756 0.024132
vt 0.814920 0.021153
vt 0.814920 0.137023
vt 0.765830 0.139339
vt 0.720228 0.061742
vt 0.728112 0.126274
vt 0.021177 0.968122
vt 0.021177 0.915921
vt 0.107837 0.907396
vt 0.107837 0.962954
vt 0.749223 0.196422
vt 0.721918 0.170905
vt 0.939166 0.130614
vt 0.894753 0.140005
vt 0.894753 0.030544
vt 0.939166 0.021153
vt 0.501489 0.528507
vt 0.503422 0.498289
vt 0.610325 0.532565
vt 0.580632 0.548271
vt 0.130290 0.751808
vt 0.130031 0.807362
vt 0.021177 0.807222
vt 0.021436 0.751668
vt 0.114371 0.722581
vt 0.037182 0.722581
vt 0.490561 0.576946
vt 0.113844 0.835445
vt 0.036655 0.835445
vt 0.857273 0.128082
vt 0.860559 0.049748
vt 0.825077 0.657685
vt 0.838166 0.716838
vt 0.769048 0.754111
vt 0.711779 0.696880
vt 0.737034 0.649483
vt 0.047021 0.877750
vt 0.096870 0.878227
vt 0.838166 0.609747
vt 0.719079 0.614314
vt 0.802275 0.813890
vt 0.802275 0.874807
vt 0.492189 0.855283
vt 0.490561 0.760158
vt 0.542820 0.760158
vt 0.559430 0.855283
vt 0.623826 0.809264
vt 0.623826 0.747234
vt 0.667415 0.718082
vt 0.667415 0.828821
vt 0.493577 0.724207
vt 0.496210 0.723130
vt 0.519218 0.718082
vt 0.547244 0.724859
vt 0.186654 0.763151
vt 0.185010 0.761182
vt 0.183951 0.723959
vt 0.184489 0.722581
vt 0.220676 0.740366
vt 0.931272 0.264280
vt 0.942745 0.352144
vt 0.934098 0.357050
vt 0.907172 0.277849
vt 0.925340 0.263108
vt 0.581472 0.745729
vt 0.581381 0.755160
vt 0.978823 0.248794
vt 0.978823 0.367123
vt 0.645537 0.929306
vt 0.640414 0.943385
vt 0.630969 0.934015
vt 0.633634 0.924455
vt 0.193137 0.549349
vt 0.193787 0.542215
vt 0.206174 0.541756
vt 0.206021 0.550268
vt 0.278602 0.919370
vt 0.275064 0.907939
vt 0.275858 0.907137
vt 0.284329 0.898540
vt 0.291046 0.915437
vt 0.201436 0.662065
vt 0.191001 0.657884
vt 0.189844 0.645613
vt 0.201436 0.649163
vt 0.719533 0.355303
vt 0.711779 0.337943
vt 0.723576 0.335387
vt 0.730134 0.347939
vt 0.747777 0.396014
vt 0.759890 0.384212
vt 0.653084 0.562038
vt 0.652678 0.504510
vt 0.663777 0.498289
vt 0.663777 0.555924
vt 0.273562 0.973526
vt 0.291046 0.978848
vt 0.191856 0.594579
vt 0.209505 0.603308
vt 0.645537 0.871126
vt 0.623826 0.878813
vt 0.286784 0.594415
vt 0.312571 0.535626
vt 0.319643 0.534566
vt 0.301734 0.592175
vt 0.918934 0.870832
vt 0.911427 0.928090
vt 0.904196 0.927982
vt 0.903649 0.870605
vt 0.389750 0.802181
vt 0.405248 0.859944
vt 0.398092 0.858887
vt 0.374624 0.799945
vt 0.656922 0.604343
vt 0.663790 0.606588
vt 0.663790 0.613809
vt 0.656922 0.616028
vt 0.652678 0.610177
vt 0.851623 0.505265
vt 0.864819 0.567442
vt 0.857590 0.567186
vt 0.836341 0.504723
vt 0.761049 0.320834
vt 0.772319 0.273420
vt 0.779427 0.273345
vt 0.776076 0.320676
vt 0.556817 0.953902
vt 0.515868 0.967186
vt 0.490561 0.932382
vt 0.515868 0.897588
vt 0.556817 0.910888
vt 0.737108 0.567442
vt 0.749910 0.439465
vt 0.775739 0.436656
vt 0.779427 0.566996
vt 0.864818 0.243584
vt 0.854750 0.380355
vt 0.829592 0.378673
vt 0.821781 0.242057
vt 0.394173 0.678338
vt 0.384970 0.749091
vt 0.361997 0.750936
vt 0.365271 0.673977
vt 0.920418 0.747400
vt 0.923569 0.816470
vt 0.900563 0.817740
vt 0.897561 0.746837
vt 0.279208 0.718478
vt 0.273562 0.645751
vt 0.296202 0.646526
vt 0.307765 0.714201
vt 0.753374 0.361048
vt 0.775897 0.364854
vt 0.847475 0.454818
vt 0.824444 0.455555
vt 0.277540 0.856236
vt 0.319643 0.849929
vt 0.923569 0.610387
vt 0.880519 0.609747
vt 0.405248 0.540864
vt 0.362647 0.534566
vt 0.824984 0.451295
vt 0.844157 0.441324
vt 0.840942 0.423453
vt 0.828698 0.420201
vt 0.752187 0.365019
vt 0.285251 0.278595
vt 0.377303 0.273345
vt 0.364931 0.399247
vt 0.273562 0.391120
vt 0.191284 0.183571
vt 0.207619 0.232061
vt 0.093890 0.232061
vt 0.108695 0.180051
vt 0.673406 0.118996
vt 0.577078 0.119526
vt 0.581547 0.021683
vt 0.677875 0.021153
vt 0.065911 0.133866
vt 0.021177 0.147176
vt 0.022524 0.049261
vt 0.075350 0.061913
vt 0.426258 0.106828
vt 0.338611 0.110588
vt 0.338690 0.021153
vt 0.417655 0.026750
vt 0.473713 0.097451
vt 0.437619 0.037731
vt 0.439633 0.039750
vt 0.440794 0.039478
vt 0.467867 0.054369
vt 0.147491 0.538386
vt 0.145289 0.613086
vt 0.023395 0.605394
vt 0.021177 0.585850
vt 0.104574 0.594781
vt 0.133046 0.564620
vt 0.137125 0.537573
vt 0.042249 0.480045
vt 0.021177 0.453198
vt 0.053199 0.470483
vt 0.092202 0.460790
vt 0.094237 0.466908
vt 0.105690 0.457826
vt 0.130087 0.426636
vt 0.124120 0.416129
vt 0.196896 0.424080
vt 0.162618 0.474354
vt 0.144263 0.021153
vt 0.198571 0.053100
vt 0.231208 0.127474
vt 0.062172 0.330703
vt 0.085598 0.274366
vt 0.171778 0.277269
vt 0.196896 0.332502
vt 0.121193 0.680275
vt 0.037061 0.680275
vt 0.621150 0.288145
vt 0.669426 0.376706
vt 0.634825 0.455984
vt 0.550681 0.455984
vt 0.496784 0.401804
vt 0.490561 0.315865
vt 0.544081 0.273345
vt 0.273562 0.110465
vt 0.276236 0.044230
vt 0.516066 0.110287
vt 0.524117 0.042879
vt 0.448207 0.297862
vt 0.435991 0.396329
vt 0.333058 0.231040
vt 0.275921 0.195974
vt 0.473713 0.175722
vt 0.429392 0.217991
vt 0.448207 0.458561
vt 0.384332 0.492261
vt 0.677875 0.204842
vt 0.581497 0.215369
vt 0.139481 0.522349
vt 0.189844 0.529857
vt 0.199556 0.522349
vt 0.209505 0.529427
vt 0.206576 0.540740
vt 0.186654 0.829449
vt 0.181069 0.831261
vt 0.172644 0.820464
vt 0.118901 0.364320
vt 0.088302 0.345906
vt 0.065517 0.350808
vt 0.914622 0.411684
vt 0.953362 0.409428
vt 0.953362 0.476596
vt 0.919959 0.475028
vt 0.907172 0.423115
vt 0.946560 0.242057
vt 0.220676 0.858725
vt 0.181883 0.864749
vn 0.2436 0.0620 -0.9679
vn 0.3585 -0.6834 -0.6360
vn 0.9648 0.2457 0.0940
vn 0.6826 -0.7294 0.0455
vn 0.3326 0.0847 0.9393
vn 0.4603 -0.6640 0.5892
vn -0.7366 -0.1876 0.6498
vn -0.4294 -0.7254 0.5380
vn -0.8067 -0.2054 -0.5541
vn -0.5068 -0.7482 -0.4281
vn 0.2468 -0.9691 0.0000
vn -0.8030 0.4147 -0.4281
vn -0.7240 0.4317 0.5380
vn -0.2468 0.9691 0.0000
vn 0.1980 0.6199 0.7593
vn 0.4460 0.8924 0.0689
vn -0.0072 0.6897 -0.7241
vn -0.9648 -0.2457 -0.0940
vn -0.6826 0.7294 -0.0455
vn -0.3326 -0.0847 -0.9393
vn -0.3501 0.7849 -0.5113
vn -0.1906 -0.6281 -0.7544
vn -0.4460 -0.8924 -0.0689
vn 0.4844 0.3445 -0.8042
vn 0.6650 0.6821 0.3040
vn -0.0905 0.1068 0.9902
vn -0.7770 -0.5519 0.3029
vn -0.4245 -0.4196 -0.8024
vn -0.2490 -0.6933 -0.6762
vn -0.5431 -0.7737 0.3262
vn -0.2764 0.0490 0.9598
vn 0.2465 0.8948 0.3723
vn 0.3726 0.4018 -0.8365
vn 0.5875 -0.0294 -0.8087
vn 0.8691 -0.4060 0.2824
vn 0.0000 -0.1055 0.9944
vn 0.0000 1.0000 0.0000
vn -0.8445 0.4599 0.2744
vn -0.5117 0.4921 -0.7043
vn 0.0000 -1.0000 -0.0000
vn -0.6135 0.1469 -0.7759
vn -0.9463 0.1979 0.2555
vn 0.0808 0.0702 0.9943
vn 0.9378 0.0172 0.3469
vn 0.5886 -0.0451 -0.8071
vn -0.5198 0.3648 -0.7724
vn -0.8781 0.3748 0.2974
vn 0.0004 0.0029 1.0000
vn 0.9260 -0.2211 0.3060
vn 0.5935 -0.0036 -0.8049
vn 0.5878 -0.0033 -0.8090
vn 0.9406 -0.0307 0.3382
vn 0.0527 0.1017 0.9934
vn -0.9335 0.0906 0.3469
vn -0.5840 0.0054 -0.8118
vn 0.2249 -0.1049 -0.9687
vn 0.0818 -0.7786 -0.6221
vn 0.9217 -0.2427 0.3026
vn 0.5723 -0.7858 0.2347
vn -0.4897 0.0461 0.8707
vn -0.6112 -0.4426 0.6561
vn -0.9599 0.0252 0.2793
vn -0.8214 -0.5525 0.1419
vn -0.5624 -0.6232 -0.5435
vn -0.1433 -0.9896 0.0130
vn -0.5577 0.4813 -0.6762
vn -0.8084 0.5389 0.2367
vn 0.1087 0.9940 0.0067
vn -0.3615 0.5543 0.7497
vn 0.8238 0.4795 0.3023
vn 0.2480 0.5149 -0.8206
vn 0.2225 0.5346 0.8153
vn 0.0862 -0.6117 0.7864
vn 0.1926 -0.0458 0.9802
vn 0.8313 0.4087 -0.3768
vn 0.5981 -0.7608 -0.2519
vn 0.8943 -0.2450 -0.3744
vn -0.8539 -0.4657 0.2325
vn -0.6672 0.0105 -0.7448
vn -0.2436 -0.0620 0.9679
vn 0.0211 -0.7033 0.7106
vn -0.3203 0.7532 0.5745
usemtl Deciduous_Tree_Material
s off
f 10/1/1 9/2/1 8/3/1 7/4/1
f 20/5/2 10/6/2 7/7/2 18/8/2
f 7/9/3 8/10/3 6/11/3 5/12/3
f 18/13/4 7/9/4 5/12/4 16/14/4
f 5/15/5 6/16/5 4/17/5 3/18/5
f 16/14/6 5/12/6 3/19/6 14/20/6
f 3/21/7 4/22/7 2/23/7 1/24/7
f 14/25/8 3/26/8 1/27/8 12/28/8
f 1/29/9 2/30/9 9/31/9 10/32/9
f 12/33/10 1/29/10 10/32/10 20/34/10
f 20/5/11 18/8/11 16/35/11 14/25/11 12/28/11
f 2/30/12 11/36/12 19/37/12 9/31/12
f 4/22/13 13/38/13 11/39/13 2/23/13
f 17/40/14 19/41/14 11/42/14 13/43/14 15/44/14
f 6/16/15 15/45/15 13/46/15 4/17/15
f 8/47/16 17/40/16 15/44/16 6/48/16
f 9/2/17 19/49/17 17/50/17 8/3/17
f 23/51/18 21/52/18 22/53/18 24/54/18
f 28/55/19 26/56/19 21/57/19 23/58/19
f 21/52/20 107/59/20 109/60/20 110/61/20 104/62/20 22/53/20
f 26/63/21 98/64/21 108/65/21 107/66/21 21/67/21
f 27/68/11 25/69/11 92/70/11 93/71/11 91/72/11
f 22/53/22 104/62/22 92/73/22 25/74/22
f 24/75/23 22/76/23 25/69/23 27/68/23
f 34/77/24 97/78/24 103/79/24 35/80/24
f 35/81/25 103/82/25 102/83/25 36/84/25
f 36/85/26 102/86/26 100/87/26 101/88/26 37/89/26
f 37/90/27 101/91/27 96/92/27 38/93/27
f 38/94/28 96/95/28 97/96/28 34/97/28
f 33/98/29 38/94/29 34/97/29 29/99/29
f 32/100/30 37/101/30 38/102/30 33/103/30
f 31/104/31 36/85/31 37/89/31 32/105/31
f 30/106/32 35/81/32 36/84/32 31/107/32
f 29/108/33 34/77/33 35/80/33 30/109/33
f 54/110/34 40/111/34 42/112/34 55/113/34
f 55/114/35 42/115/35 44/116/35 56/117/35
f 56/118/36 44/119/36 46/120/36 57/121/36
f 42/122/37 40/123/37 48/124/37 46/125/37 44/126/37
f 57/127/38 46/128/38 48/129/38 58/130/38
f 58/131/39 48/132/39 40/133/39 54/134/39
f 39/135/40 41/136/40 43/137/40 45/138/40 47/139/40
f 47/140/41 63/141/41 62/142/41 39/143/41
f 45/144/42 61/145/42 63/146/42 47/147/42
f 60/148/43 51/149/43 52/150/43 61/151/43
f 59/152/44 50/153/44 51/154/44 60/155/44
f 62/156/45 49/157/45 50/158/45 59/159/45
f 53/160/46 58/131/46 54/134/46 49/161/46
f 52/162/47 57/127/47 58/130/47 53/163/47
f 51/149/48 56/118/48 57/121/48 52/150/48
f 50/153/49 55/114/49 56/117/49 51/154/49
f 49/157/50 54/110/50 55/113/50 50/158/50
f 39/164/51 62/156/51 59/159/51 41/165/51
f 41/166/52 59/152/52 60/155/52 43/167/52
f 43/168/53 60/148/53 61/151/53 45/169/53
f 63/146/54 61/145/54 52/162/54 53/163/54 30/170/54 31/171/54 32/172/54 33/173/54
f 62/142/55 63/141/55 33/98/55 29/99/55 30/174/55 53/160/55 49/161/55
f 72/175/56 71/176/56 70/177/56 69/178/56
f 82/179/57 72/180/57 69/181/57 80/182/57
f 88/183/58 87/184/58 68/185/58 67/186/58
f 90/187/59 88/188/59 67/189/59 78/190/59
f 84/191/60 83/192/60 66/193/60 65/194/60
f 86/195/61 84/191/61 65/194/61 109/196/61 107/197/61 108/198/61 76/199/61
f 65/200/62 66/201/62 64/202/62 93/203/62 92/204/62 104/205/62 110/206/62
f 76/207/63 108/208/63 98/209/63 99/210/63 74/211/63
f 74/211/64 99/210/64 95/212/64 106/213/64 105/214/64 72/215/64 82/216/64
f 82/179/65 80/182/65 90/187/65 78/190/65 86/217/65 76/218/65 74/219/65
f 64/220/66 73/221/66 81/222/66 71/223/66
f 66/201/67 75/224/67 73/225/67 64/202/67
f 79/226/68 81/227/68 73/228/68 75/229/68 85/230/68 77/231/68 89/232/68
f 83/192/69 85/233/69 75/234/69 66/193/69
f 87/184/70 89/235/70 77/236/70 68/185/70
f 71/176/71 81/237/71 79/238/71 70/177/71
f 68/239/72 77/240/72 85/233/72 83/192/72
f 78/241/73 67/242/73 84/191/73 86/195/73
f 67/242/74 68/239/74 83/192/74 84/191/74
f 70/177/75 79/238/75 89/243/75 87/244/75
f 80/182/76 69/181/76 88/188/76 90/187/76
f 69/245/77 70/246/77 87/184/77 88/183/77
f 110/206/78 109/247/78 65/200/78
f 97/248/14 96/249/14 101/250/14 100/251/14 102/83/14 103/82/14
f 98/64/14 26/63/14 28/252/14 95/253/14 99/254/14
f 105/214/79 94/255/79 91/256/79 93/257/79 64/220/79 71/223/79 72/215/79
f 106/258/80 23/259/80 24/260/80 94/261/80 105/262/80
f 94/263/81 24/75/81 27/68/81 91/72/81
f 95/253/82 28/252/82 23/264/82 106/265/82
